<?xml version="1.0" encoding="UTF-8"?>
<svg width="11px" height="26px" viewBox="0 0 11 26" version="1.1" xmlns="http://www.w3.org/2000/svg" xmlns:xlink="http://www.w3.org/1999/xlink">
    <!-- Generator: Sketch 48.2 (47327) - http://www.bohemiancoding.com/sketch -->
    <title>icon-licolnway</title>
    <desc>Created with Sketch.</desc>
    <defs>
        <path d="M8.2204254,23.6587173 C8.3593512,23.1750481 9.5042808,19.1069561 9.62226,13.8955983 L9.6243552,13.8955983 L9.6243552,13.8545346 C9.62226,13.7693563 9.6969636,13.736909 9.8212284,13.7034487 C10.0634778,13.6380495 10.1702898,13.6152315 10.3238766,13.5690989 C10.3992768,13.5462809 10.4439564,13.5112991 10.4914278,13.39013 C9.7549056,13.4281548 8.7216804,13.488485 8.0165754,13.5178894 C6.5414358,13.5772108 6.4178676,13.8413499 6.4178676,14.6413827 C6.4178676,15.0180745 6.3285084,21.582083 6.1162776,25.6486554 C6.3885456,25.6065752 6.4094868,25.4245658 6.4094868,25.4245658 C6.5183994,24.9530643 6.548418,24.8318937 6.6028716,24.5809333 C6.630795,24.4526646 6.65523,24.4344129 6.7417974,24.42478 L6.7431906,24.4242731 C6.863967,24.4141334 6.9833502,24.4039936 7.112502,24.3928396 C7.798761,24.3279449 8.0333316,24.3112143 8.2204254,23.6587173 Z M4.39260516,25.4245658 C4.39260516,25.4245658 4.41494496,25.6080962 4.69000638,25.6496696 C4.47498378,21.5734667 4.3842276,15.0175701 4.3842276,14.6413827 C4.3842276,13.8413499 4.2606594,13.5772108 2.78691678,13.5178894 C2.0908854,13.4889935 1.0478862,13.4317022 0.309269556,13.394186 C0.35674209,13.5118076 0.401422122,13.5462809 0.476819676,13.5690989 C0.6290109,13.6152315 0.7365222,13.6380495 0.9787716,13.7034487 C1.10373624,13.736909 1.1777373,13.7693563 1.17564318,13.8545346 L1.17564318,13.8955983 L1.1777373,13.8955983 C1.29572082,19.1069561 2.44064664,23.1750481 2.58027174,23.6587173 C2.76597288,24.3112143 3.00054294,24.3279449 3.68819676,24.3928396 C3.81665142,24.4039936 3.93603084,24.4141334 4.05750492,24.4242731 L4.05750492,24.42478 C4.14686466,24.4344129 4.17269556,24.4511435 4.19992236,24.5809333 C4.25437596,24.8318937 4.28509386,24.9530643 4.39260516,25.4245658 Z M2.58027174,2.34026855 C2.44064664,2.82292276 1.29572082,6.8910163 1.1777373,12.1028786 L1.17564318,12.1038956 L1.17564318,12.1439463 C1.1777373,12.2291206 1.10373624,12.2615679 0.9787716,12.2955367 C0.7365222,12.3614444 0.6290109,12.383754 0.476819676,12.429382 C0.401422122,12.4521961 0.35674209,12.4871778 0.308571444,12.6073339 C0.96201702,12.5728606 2.04480936,12.5110089 2.78691678,12.481096 C4.2606594,12.4207617 4.3842276,12.1576355 4.3842276,11.3576027 C4.3842276,11.0077808 4.47847434,4.46557347 4.68930816,0.3508389 C4.41494496,0.392411047 4.39260516,0.574927344 4.39260516,0.574927344 C4.28509386,1.04693527 4.25437596,1.16810834 4.19992236,1.41855823 C4.17269556,1.5488561 4.14686466,1.56558827 4.05750492,1.57471308 C3.93603084,1.58485085 3.81665142,1.59499267 3.68819676,1.60766892 C3.00054294,1.67002513 2.76597288,1.68777027 2.58027174,2.34026855 Z M6.4094868,0.574927344 C6.4094868,0.574927344 6.3885456,0.392411047 6.114879,0.3508389 C6.3285084,4.45898311 6.4178676,10.9854713 6.4178676,11.3576027 C6.4178676,12.1576355 6.5414358,12.4207617 8.0165754,12.481096 C8.7523956,12.5110089 9.9029088,12.577425 10.4921244,12.6093639 C10.4439564,12.4881948 10.3992768,12.4521961 10.3238766,12.429382 C10.1702898,12.383754 10.0634778,12.3614444 9.8212284,12.2955367 C9.6969636,12.2615679 9.62226,12.2291206 9.6243552,12.1439463 L9.6243552,12.1038956 L9.62226,12.1028786 C9.5042808,6.8910163 8.3593512,2.82292276 8.2204254,2.34026855 C8.0333316,1.68777027 7.798761,1.67002513 7.112502,1.60766892 C6.9833502,1.59499267 6.863967,1.58485085 6.7431906,1.57471308 L6.7417974,1.57420457 C6.65523,1.56558827 6.630795,1.54683016 6.6028716,1.41855823 C6.548418,1.16810834 6.5183994,1.04693527 6.4094868,0.574927344 Z M10.8,12.9992405 C10.7867376,13.5351301 10.7874342,13.517385 10.7839458,13.7156164 L10.7832438,13.7166294 C10.7050572,18.791099 9.812853,22.9864479 9.3835044,24.8744808 C9.2068758,25.6481485 9.126594,25.7247041 7.9893486,25.8468888 C7.477623,25.9016438 7.0133688,25.9411891 6.5693592,25.9665386 C6.567264,25.9665386 6.5651688,25.9675526 6.562377,25.9685666 C6.120468,25.997465 5.4013986,26 5.4013986,26 C5.4013986,26 4.68372348,25.997465 4.2397155,25.9685666 C4.23831906,25.9675526 4.23692316,25.9675526 4.23552672,25.9665386 C3.78942462,25.9411891 3.32447328,25.9016438 2.8099548,25.8468888 C1.67270832,25.7247041 1.59242382,25.6481485 1.41719436,24.8744808 C0.98784738,22.9864479 0.09564318,18.791099 0.016755012,13.7166294 L0.015358761,13.7156164 C0.012566259,13.517385 0.012566259,13.5351301 0,12.9992405 C0.012566259,12.4633508 0.012566259,12.4816004 0.015358761,12.2828605 C0.015358761,12.282356 0.016755012,12.282356 0.016755012,12.2818475 C0.09564318,7.20737788 0.98784738,3.01152495 1.41719436,1.12501068 C1.59242382,0.3508389 1.67270832,0.27326796 2.8099548,0.152098932 C3.38032332,0.0912601663 3.89204892,0.0486710125 4.38073704,0.0223095653 L4.38073704,0.0238270031 C4.81985802,0.00152147361 5.4013986,0 5.4013986,0 C5.4013986,0 5.9794416,0.00152147361 6.4192608,0.0238270031 L6.4192608,0.0223095653 C6.90795,0.0486710125 7.4203776,0.0912601663 7.9893486,0.152098932 C9.126594,0.27326796 9.2068758,0.3508389 9.3835044,1.12501068 C9.812853,3.01152495 10.7050572,7.20737788 10.7832438,12.2818475 C10.7832438,12.282356 10.7839458,12.282356 10.7839458,12.2828605 C10.7874342,12.4816004 10.7867376,12.4633508 10.8,12.9992405 Z" id="path-1"></path>
    </defs>
    <g id="icon-licolnway" stroke="none" stroke-width="1" fill="none" fill-rule="evenodd" transform="translate(-10.000000, -2.000000)">
        <g id="lincolnWayIcon">
            <g transform="translate(10.000000, 2.000000)">
                <mask id="mask-2" fill="white">
                    <use xlink:href="#path-1"></use>
                </mask>
                <g id="Clip-2"></g>
                <polygon id="Fill-1" fill="rgba(0,0,0,0.7)" mask="url(#mask-2)" points="-4.8 -2.47619048 12 -2.47619048 12 27.2380952 -4.8 27.2380952"></polygon>
            </g>
        </g>
    </g>
</svg>