<?xml version="1.0" encoding="UTF-8"?>
<svg width="30px" height="30px" viewBox="0 0 30 30" version="1.1" xmlns="http://www.w3.org/2000/svg" xmlns:xlink="http://www.w3.org/1999/xlink">
    <!-- Generator: Sketch 48.2 (47327) - http://www.bohemiancoding.com/sketch -->
    <title>icon-fordpass</title>
    <desc>Created with Sketch.</desc>
    <defs></defs>
    <g id="Icons" stroke="none" stroke-width="1" fill="none" fill-rule="evenodd">
        <g id="icon-fordpass" fill="#102b4e" fill-rule="nonzero">
            <g id="FordPass" transform="translate(4.000000, 4.000000)">
                <path d="M2.72262986,13.3761881 C3.46613553,12.4545202 4.50414768,11.8057708 5.6691581,11.5346313 C6.01335785,11.4697531 6.36949767,11.5492476 6.65133418,11.7538642 C6.96384475,12.104637 6.87455602,12.4554097 6.56204544,12.5869495 C5.65784977,13.0121571 4.90943447,13.7012585 4.41911581,14.5600461 C4.00166564,15.3357601 4.03567353,16.2709652 4.50840455,17.0154552 C5.49058063,18.4185461 8.1245983,18.4623927 10.5800385,16.2262166 C11.2050596,15.6562109 11.7407921,15.1300518 12.3211688,14.5161995 C13.350333,13.3671726 14.3188965,12.1671269 15.2230527,10.920779 L15.2230527,10.8769324 C14.2481409,10.8628851 13.2940995,11.1547354 12.4997463,11.7100176 C12.2318801,11.8415574 11.9193695,11.8415574 11.7854364,11.6223245 C11.6443999,11.3552606 11.7428604,11.0264773 12.0086583,10.8769324 C13.3479893,9.956154 14.776609,9.82461422 16.2498731,9.56153467 C16.3310453,9.55290049 16.4082522,9.52256956 16.473095,9.47384149 C17.0981161,8.72844944 17.5445598,8.02690398 18.1695809,7.28151192 C18.6862619,6.57151291 19.3024918,5.93677184 20,5.39610849 C19.5004418,4.48132481 18.8346989,3.66401687 18.0356478,2.98454597 C16.1605844,2.8091596 14.2408766,2.8091596 12.3658132,3.51070506 C10.1335948,4.29994371 9.15141875,6.05380736 9.59786242,7.23766533 C9.95501736,8.02690398 11.0264822,8.20229034 12.097947,7.67613124 C13.0152294,7.25332951 13.7786573,6.56475077 14.285521,5.70303463 C14.5980316,5.26456872 15.2676971,5.57149486 14.9105421,6.40458009 C13.928366,8.55306307 12.1425914,10.3069267 9.95501736,10.3507733 C9.13261845,10.3959945 8.32902981,10.0979485 7.74235954,9.5301123 C7.15568927,8.96227611 6.84052212,8.17748216 6.87455602,7.3692051 C6.87455602,4.12455734 10.6246829,1.93222778 14.5533872,1.58145504 C15.133764,1.53760845 15.624852,1.53760845 16.2052288,1.53760845 C11.9823528,-1.00013731 6.53566786,-0.34454416 3.06174404,3.11963105 C-0.412179779,6.58380625 -0.99672638,11.9425196 1.65116504,16.0508302 C1.73856984,15.0765374 2.1106341,14.1477727 2.72262986,13.3761881 Z" id="Shape"></path>
                <path d="M22.9980652,11.4859027 C23.0059171,11.3226841 22.9898463,11.1592337 22.9502902,11 C21.899241,11.044173 20.465992,11.2208649 19.5104926,11.3092108 C19.1760679,11.3092108 19.1760679,11.3533838 19.1282929,11.4417298 C17.3128442,14.2246273 15.3540706,17.2283896 13.2041971,19.2161736 C11.6753981,20.6297088 10.2899241,21.3806494 9,21.6898602 C9.83943253,21.906922 10.7083025,22.0110615 11.5798482,21.999071 C14.6033592,22.0096383 17.5070234,20.9068122 19.6494612,18.9341916 C21.791899,16.9615711 22.9968169,14.2814761 22.9980652,11.4859027 Z" id="Shape"></path>
                <path d="M19.025974,9.89655172 C18.991342,9.94827586 18.991342,10 19.025974,10 C19.7532468,9.94827586 20.3766234,9.94827586 21,9.84482759 C20.9287816,8.86721134 20.7655564,7.90949452 20.5151515,7 C19.9354947,7.86332695 19.4347676,8.83727517 19.025974,9.89655172 Z" id="Shape"></path>
            </g>
        </g>
    </g>
</svg>