<svg id="Layer_1" data-name="Layer 1" xmlns="http://www.w3.org/2000/svg" viewBox="0 0 158.14 48"><defs><style>.cls-1{fill:#002e6d;}.cls-2{fill:#fff;}</style></defs><title>logo-fordPass-lightBlue</title><path class="cls-1" d="M41.06,20.87c-0.08.1,0,.2,0.11,0.18,2.16-.11,4.1-0.17,6.11-0.33,0.35,0,.36-0.12.33-0.37a5.43,5.43,0,0,1,0-.8,23.82,23.82,0,0,0-1.46-4.87A26.29,26.29,0,0,0,41.06,20.87Z" transform="translate(0 0)"/><path class="cls-1" d="M39.87,23.4a0.77,0.77,0,0,0-.75.37c-3.67,6.05-7.59,12.58-11.89,16.95-4.14,4.21-7.66,5.63-11.28,5.9A24,24,0,0,0,48,24c0-.45,0-0.9,0-1.35H47.74C45.57,22.78,42.17,23.11,39.87,23.4Z" transform="translate(0 0)"/><path class="cls-1" d="M6.85,30.1a11.32,11.32,0,0,1,6.28-4,2.37,2.37,0,0,1,2.06.42A1.11,1.11,0,0,1,15,28.31a10.58,10.58,0,0,0-4.66,4.29A5.26,5.26,0,0,0,10.61,38c2.05,3.1,7.78,3.19,13.11-1.76a45.75,45.75,0,0,0,3.7-3.75,83.42,83.42,0,0,0,6.24-8,0.16,0.16,0,0,0,0-.15,0.15,0.15,0,0,0-.16-0.08,9.51,9.51,0,0,0-5.66,2,1.1,1.1,0,0,1-1.56-.17,1.25,1.25,0,0,1,.49-1.67c2.84-2,5.94-2.33,9.1-2.87a0.51,0.51,0,0,0,.4-0.23c1.3-1.67,2.28-3.17,3.66-4.86a37,37,0,0,1,4.58-4.46l0.19-.16A24.08,24.08,0,0,0,41.4,7.47c-4.63-.66-9.29-0.8-13.81.87-4.81,1.8-6.92,5.61-5.9,8.16,0.72,1.81,3.1,2.1,5.33,1a12,12,0,0,0,4.77-4.25c0.68-1,2.11-.29,1.34,1.52-2,4.78-5.92,8.57-10.65,8.73A6.21,6.21,0,0,1,15.86,17c0-7.21,8-12,16.47-12.66a49.26,49.26,0,0,1,5.28-.14A24,24,0,0,0,4.56,38.07h0A11,11,0,0,1,6.85,30.1Z" transform="translate(0 0)"/><path class="cls-2" d="M32.33,4.37C23.9,5.08,15.88,9.83,15.86,17a6.21,6.21,0,0,0,6.62,6.48c4.73-.16,8.61-3.95,10.65-8.73,0.77-1.81-.66-2.57-1.34-1.52A12,12,0,0,1,27,17.52c-2.23,1.09-4.61.8-5.33-1-1-2.55,1.09-6.36,5.9-8.16,4.52-1.67,9.18-1.53,13.81-.87a24.12,24.12,0,0,0-3.78-3.24A49.26,49.26,0,0,0,32.33,4.37Z" transform="translate(0 0)"/><path class="cls-2" d="M44.54,12.06A37,37,0,0,0,40,16.52c-1.38,1.69-2.37,3.19-3.66,4.86a0.51,0.51,0,0,1-.4.23c-3.16.53-6.26,0.89-9.1,2.87a1.25,1.25,0,0,0-.49,1.67,1.1,1.1,0,0,0,1.56.17,9.51,9.51,0,0,1,5.66-2,0.15,0.15,0,0,1,.16.08,0.16,0.16,0,0,1,0,.15,83.42,83.42,0,0,1-6.24,8,45.75,45.75,0,0,1-3.7,3.75C18.39,41.23,12.67,41.14,10.61,38a5.26,5.26,0,0,1-.26-5.44A10.58,10.58,0,0,1,15,28.31a1.11,1.11,0,0,0,.18-1.83,2.37,2.37,0,0,0-2.06-.42,11.32,11.32,0,0,0-6.28,4,11,11,0,0,0-2.29,8h0a24.06,24.06,0,0,0,11.37,8.54c3.62-.27,7.14-1.69,11.28-5.9,4.3-4.37,8.22-10.89,11.89-16.95a0.77,0.77,0,0,1,.75-0.37c2.3-.29,5.7-0.62,7.88-0.74H48a24,24,0,0,0-.38-3.1,5.43,5.43,0,0,0,0,.8c0,0.26,0,.34-0.33.37-2,.16-4,0.22-6.11.33C41,21.06,41,21,41.06,20.87a26.29,26.29,0,0,1,5.06-6.18,23.9,23.9,0,0,0-1.4-2.78Z" transform="translate(0 0)"/><path class="cls-1" d="M60.7,16H72v2.58h-8.6V23h8.38v2.56H63.39V32.5H60.7V16Z" transform="translate(0 0)"/><path class="cls-1" d="M73.17,26.26c0-4.22,1.76-6.49,6.25-6.49s6.25,2.27,6.25,6.49-1.76,6.49-6.25,6.49S73.17,30.48,73.17,26.26Zm9.89,0.07c0-2.58-.91-4.07-3.64-4.07s-3.64,1.49-3.64,4.07,0.89,4.09,3.64,4.09S83.06,28.9,83.06,26.32Z" transform="translate(0 0)"/><path class="cls-1" d="M87.57,20.21l2-.16,0.27,1.42c0.51-.84,2-1.51,4.13-1.56v2.6c-3,0-3.82,1.42-3.82,3.58v6.4h-2.6V20.21Z" transform="translate(0 0)"/><path class="cls-1" d="M94.89,26.21c0-3.69,1.18-6.42,5.45-6.42,2.49,0,3.67.49,4.25,1.36V15.25h2.6V32.39l-2,.2-0.29-1.33c-0.76,1-2.09,1.47-4.67,1.47C96,32.72,94.89,29.95,94.89,26.21Zm9.69,0c0-2.91-.91-4-3.76-4-2.67,0-3.31,1.56-3.31,4s0.64,4.16,3.31,4.16S104.58,29.17,104.58,26.21Z" transform="translate(0 0)"/><path class="cls-1" d="M109.87,16h7.22c3.82,0,5.56,1.53,5.56,4.91s-1.71,5.22-5.58,5.22h-5.49V32.5h-1.71V16Zm7.25,8.51c2.44,0,3.8-.93,3.8-3.53s-1.31-3.36-3.87-3.36h-5.47v6.89h5.53Z" transform="translate(0 0)"/><path class="cls-1" d="M123.61,29.08c0-3.49,2-4.53,8.18-4.53h0.73c0-2.09-.49-3-3.31-3a6.91,6.91,0,0,0-3.67,1.07l-0.89-1.31a9,9,0,0,1,4.69-1.33c4.13,0,4.8,1.44,4.8,5v4.62c0,1.31.09,1.49,1.27,1.49v1.47a2.39,2.39,0,0,1-.67,0c-1.42,0-1.8-.44-2-1.53-0.76,1.16-2.07,1.73-4.82,1.73C124.48,32.72,123.61,31.15,123.61,29.08ZM132.52,27V26.08h-0.64c-5.33,0-6.65.58-6.65,2.89,0,1.47.67,2.31,2.93,2.31C131.25,31.28,132.52,29.95,132.52,27Z" transform="translate(0 0)"/><path class="cls-1" d="M136.85,31.35L137.73,30A8,8,0,0,0,142,31.26c2.22,0,3.24-.42,3.24-2.16,0-1.38-.89-1.64-3.24-2.11-2.84-.56-4.62-1-4.62-3.69,0-2.11,1.24-3.36,4.62-3.36A8.82,8.82,0,0,1,146.54,21l-0.8,1.38a7.63,7.63,0,0,0-3.67-.89c-2.31,0-3,.69-3,1.8,0,1.36.89,1.69,3,2.11,3,0.6,4.78,1,4.78,3.62,0,2.8-1.56,3.69-5,3.69A9.16,9.16,0,0,1,136.85,31.35Z" transform="translate(0 0)"/><path class="cls-1" d="M148.07,31.35L149,30a8,8,0,0,0,4.31,1.22c2.22,0,3.24-.42,3.24-2.16,0-1.38-.89-1.64-3.24-2.11-2.84-.56-4.62-1-4.62-3.69,0-2.11,1.24-3.36,4.62-3.36A8.82,8.82,0,0,1,157.76,21L157,22.39a7.63,7.63,0,0,0-3.67-.89c-2.31,0-3,.69-3,1.8,0,1.36.89,1.69,3,2.11,3,0.6,4.78,1,4.78,3.62,0,2.8-1.56,3.69-5,3.69A9.16,9.16,0,0,1,148.07,31.35Z" transform="translate(0 0)"/></svg>